<?xml version="1.0" standalone="no"?>
<!DOCTYPE svg PUBLIC "-//W3C//DTD SVG 20010904//EN"
 "http://www.w3.org/TR/2001/REC-SVG-20010904/DTD/svg10.dtd">
<svg version="1.0" xmlns="http://www.w3.org/2000/svg"
 width="512.000000pt" height="512.000000pt" viewBox="0 0 512.000000 512.000000"
 preserveAspectRatio="xMidYMid meet">

<g transform="translate(0.000000,512.000000) scale(0.100000,-0.100000)"
fill="#000000" stroke="none">
<path d="M0 4843 c1 -240 3 -273 14 -242 33 94 95 151 188 176 77 20 4638 20
4715 0 92 -24 156 -84 189 -174 12 -34 13 -6 14 240 l0 277 -2560 0 -2560 0 0
-277z"/>
<path d="M226 4548 c-14 -20 -16 -164 -16 -1345 l0 -1323 2350 0 2350 0 0
1323 c0 1181 -2 1325 -16 1345 l-15 22 -2319 0 -2319 0 -15 -22z m1045 -274
c93 -29 177 -83 250 -160 93 -99 139 -196 160 -339 10 -65 9 -78 -5 -100 l-16
-25 -297 0 c-262 0 -299 2 -315 17 -17 15 -18 38 -18 310 0 282 1 294 20 313
18 18 29 20 83 14 34 -4 96 -17 138 -30z m1877 9 c15 -16 162 -189 327 -385
l299 -357 30 23 c17 12 161 114 319 225 242 171 292 202 313 197 28 -7 45 -41
35 -69 -9 -24 -680 -497 -706 -497 -11 0 -25 4 -31 8 -6 4 -149 171 -318 372
-169 201 -310 366 -314 368 -4 1 -147 -133 -317 -298 -236 -228 -316 -299
-335 -299 -33 -1 -46 8 -55 38 -7 23 8 40 146 174 392 380 549 527 564 527 9
0 29 -12 43 -27z m-2228 -295 c0 -162 5 -309 10 -328 12 -45 65 -97 111 -110
19 -6 165 -10 326 -10 243 0 293 -2 293 -14 0 -28 -81 -173 -124 -222 -61 -69
-166 -139 -256 -171 -401 -140 -825 183 -796 607 3 47 12 107 20 133 49 156
166 296 307 366 45 23 88 41 95 41 12 0 14 -50 14 -292z m2345 -310 c56 -25
55 -7 55 -767 l0 -699 -31 -31 -31 -31 -153 0 -153 0 -31 31 -31 31 0 706 c0
655 2 709 18 728 9 12 26 26 37 32 28 16 287 15 320 0z m1315 -223 c61 -32 60
-18 60 -656 l0 -581 -34 -34 -34 -34 -149 0 c-163 0 -180 5 -208 60 -13 25
-15 112 -15 595 0 627 0 623 62 650 48 21 278 21 318 0z m-1970 -330 c16 -8
34 -24 40 -34 6 -13 10 -174 10 -451 l0 -432 -29 -29 -29 -29 -147 0 c-160 0
-192 8 -213 55 -9 19 -12 140 -12 443 1 446 1 450 51 478 36 20 290 19 329 -1z
m1336 -19 l34 -34 0 -421 c0 -304 -3 -427 -12 -446 -21 -47 -53 -55 -210 -55
-160 0 -179 6 -204 66 -20 49 -20 809 0 858 25 60 43 66 209 66 l149 0 34 -34z
m-2270 -251 c15 -23 15 -27 0 -50 l-16 -25 -580 0 c-562 0 -580 1 -590 19 -14
27 -13 47 6 65 14 14 81 16 589 16 l575 0 16 -25z m-6 -305 c11 -11 20 -27 20
-35 0 -8 -9 -24 -20 -35 -20 -20 -33 -20 -583 -20 -612 0 -607 0 -607 55 0 55
-5 55 607 55 550 0 563 0 583 -20z m6 -325 c15 -23 15 -27 0 -50 l-16 -25
-575 0 c-508 0 -575 2 -589 16 -9 8 -16 24 -16 34 0 10 7 26 16 34 14 14 81
16 589 16 l575 0 16 -25z"/>
<path d="M2475 1611 c-106 -66 -128 -189 -47 -274 39 -42 75 -57 132 -57 191
0 248 247 78 336 -39 20 -127 18 -163 -5z m129 -102 c36 -28 36 -80 0 -108
-15 -12 -34 -21 -44 -21 -34 0 -70 39 -70 75 0 36 36 75 70 75 10 0 29 -9 44
-21z"/>
<path d="M1 628 l-1 -628 2560 0 2560 0 -1 623 c-1 578 -2 619 -16 578 -9 -26
-36 -65 -63 -92 -86 -86 143 -79 -2479 -79 -1642 0 -2338 3 -2365 11 -83 23
-161 99 -184 180 -7 23 -10 -164 -11 -593z m3189 183 l0 -110 168 -3 c153 -3
171 -5 216 -27 167 -82 214 -258 85 -323 -32 -17 -105 -18 -1099 -18 -994 0
-1067 1 -1099 18 -139 70 -68 271 120 337 30 11 86 15 195 15 l154 0 0 110 0
110 630 0 630 0 0 -109z"/>
</g>
</svg>
